# xmcd
#
# Track frame offsets:
#	150
#	16716
#	28987
#	41440
#	53748
#	63230
#	75807
#	86391
#
# Disc length: 1316 seconds
#
# Revision: 0
# Processed by: cddbd v1.4PL0 Copyright (c) Steve Scherf et al.
# Submitted via: dBpowerAMP V4.0
#
DISCID=4c052208
DTITLE=Merle Haggard - Country Legend
DYEAR=1900
DGENRE=Country
TTITLE0=Daddy Frank
TTITLE1=Okie From Muskogee
TTITLE2=If We Make It Through December
TTITLE3=The Roots Of My Raising
TTITLE4=The Legend Of Bonnie And Clyde
TTITLE5=I'm Always On A Mountian When I Fall
TTITLE6=Someday We'll Look Back
TTITLE7=The Bottle Let Me Down
EXTD=
EXTT0=
EXTT1=
EXTT2=
EXTT3=
EXTT4=
EXTT5=
EXTT6=
EXTT7=
PLAYORDER=
